# xmcd
#
# Track frame offsets:
#	150
#	10673
#	21471
#	32578
#	46175
#	57280
#	70446
#	81092
#	89488
#	98860
#	111748
#	122122
#	132851
#	144205
#	156851
#
# Disc length: 2212 seconds
#
# Revision: 0
# Processed by: cddbd v1.5.2PL0 Copyright (c) Steve Scherf et al.
# Submitted via: dBpowerAMP V4.0
#
DISCID=cb08a20f
DTITLE=Faron Young - Essential  CD 2
DYEAR=2005
DGENRE=Country
TTITLE0=If You Ain't Lovin' (You Ain't Livin')
TTITLE1=I Miss You Already
TTITLE2=The Yellow Bandana
TTITLE3=Welcome To My World
TTITLE4=Crying Time
TTITLE5=Swinging Doors
TTITLE6=Memphis
TTITLE7=Tiger By The Tale
TTITLE8=Some Of Those Memories
TTITLE9=Apartment #9
TTITLE10=Here Comes My Baby Again
TTITLE11=Once A Day
TTITLE12=Sweet Thang
TTITLE13=Seasons Come, Seasons Go
TTITLE14=A Heartache For A Keepsake
EXTD=
EXTT0=
EXTT1=
EXTT2=
EXTT3=
EXTT4=
EXTT5=
EXTT6=
EXTT7=
EXTT8=
EXTT9=
EXTT10=
EXTT11=
EXTT12=
EXTT13=
EXTT14=
PLAYORDER=
